<?xml version="1.0" encoding="UTF-8"?>
<svg xmlns="http://www.w3.org/2000/svg" xmlns:xlink="http://www.w3.org/1999/xlink" width="15px" height="15px" viewBox="0 0 15 15" version="1.1">
<g id="surface1">
<path style=" stroke:none;fill-rule:nonzero;fill:#587481;fill-opacity:1;" d="M 3.621094 11.464844 C 4 11.1875 4.488281 11.117188 4.929688 11.277344 C 5.703125 11.558594 6.574219 11.71875 7.5 11.71875 C 11.152344 11.71875 13.59375 9.359375 13.59375 7.03125 C 13.59375 4.703125 11.152344 2.34375 7.5 2.34375 C 3.847656 2.34375 1.40625 4.703125 1.40625 7.03125 C 1.40625 7.96875 1.769531 8.871094 2.453125 9.644531 C 2.703125 9.929688 2.828125 10.304688 2.796875 10.683594 C 2.757812 11.214844 2.632812 11.703125 2.46875 12.132812 C 2.964844 11.898438 3.378906 11.640625 3.621094 11.46875 Z M 0.621094 12.652344 C 0.671875 12.574219 0.722656 12.496094 0.769531 12.414062 C 1.0625 11.929688 1.34375 11.289062 1.398438 10.574219 C 0.519531 9.574219 0 8.351562 0 7.03125 C 0 3.664062 3.359375 0.9375 7.5 0.9375 C 11.640625 0.9375 15 3.664062 15 7.03125 C 15 10.398438 11.640625 13.125 7.5 13.125 C 6.414062 13.125 5.382812 12.9375 4.449219 12.601562 C 4.101562 12.855469 3.535156 13.203125 2.859375 13.496094 C 2.417969 13.691406 1.914062 13.867188 1.390625 13.96875 C 1.367188 13.976562 1.34375 13.976562 1.320312 13.984375 C 1.191406 14.007812 1.066406 14.027344 0.933594 14.039062 C 0.929688 14.039062 0.921875 14.042969 0.914062 14.042969 C 0.765625 14.058594 0.617188 14.066406 0.464844 14.066406 C 0.277344 14.066406 0.105469 13.953125 0.03125 13.777344 C -0.0390625 13.601562 0 13.402344 0.132812 13.265625 C 0.253906 13.144531 0.359375 13.011719 0.464844 12.871094 C 0.511719 12.804688 0.558594 12.734375 0.605469 12.667969 C 0.605469 12.664062 0.609375 12.660156 0.613281 12.652344 Z M 0.621094 12.652344 "/>
</g>
</svg>
